<svg width="1280" height="400" viewBox="0 0 1280 400" fill="none" xmlns="http://www.w3.org/2000/svg"><circle cx="525.094" cy="225.906" r="81.5938" stroke="#3CD3AD" stroke-width="25"/><path d="M439.587 81V192.625L492.537 143.144L439.587 81Z" stroke="#3CD3AD" stroke-width="15"/><path d="M610.601 81V193.34L556.935 143.542L610.601 81Z" stroke="#3CD3AD" stroke-width="15"/><circle cx="492.5" cy="208.5" r="17.5" fill="#4CB8C4"/><circle cx="556.5" cy="208.5" r="17.5" fill="#4CB8C4"/><path d="M63.68 299C61.76 299 60.128 298.424 58.784 297.272C57.632 295.928 57.056 294.296 57.056 292.376V104.312C57.056 102.2 57.632 100.568 58.784 99.416C60.128 98.072 61.76 97.4 63.68 97.4H78.08C81.152 97.4 83.648 98.936 85.568 102.008L146.336 218.36L207.68 102.008C208.064 100.856 208.832 99.8 209.984 98.84C211.328 97.88 212.96 97.4 214.88 97.4H228.992C231.104 97.4 232.736 98.072 233.888 99.416C235.232 100.568 235.904 102.2 235.904 104.312V292.376C235.904 294.296 235.232 295.928 233.888 297.272C232.544 298.424 230.912 299 228.992 299H214.88C212.96 299 211.328 298.424 209.984 297.272C208.832 295.928 208.256 294.296 208.256 292.376V150.68L160.16 244.568C158.24 248.6 155.168 250.616 150.944 250.616H142.016C137.792 250.616 134.72 248.6 132.8 244.568L84.416 150.68V292.376C84.416 294.296 83.744 295.928 82.4 297.272C81.248 298.424 79.712 299 77.792 299H63.68ZM341.872 301.88C322.096 301.88 306.256 295.832 294.352 283.736C282.64 271.448 276.208 254.744 275.056 233.624L274.768 223.832L275.056 214.328C276.4 193.592 282.928 177.08 294.64 164.792C306.544 152.504 322.192 146.36 341.584 146.36C362.896 146.36 379.408 153.176 391.12 166.808C402.832 180.248 408.688 198.488 408.688 221.528V226.424C408.688 228.344 408.016 229.976 406.672 231.32C405.52 232.472 403.984 233.048 402.064 233.048H302.416V235.64C302.992 248.12 306.736 258.776 313.648 267.608C320.752 276.248 330.064 280.568 341.584 280.568C350.416 280.568 357.616 278.84 363.184 275.384C368.944 271.736 373.168 267.992 375.856 264.152C377.584 261.848 378.832 260.504 379.6 260.12C380.56 259.544 382.192 259.256 384.496 259.256H398.608C400.336 259.256 401.776 259.736 402.928 260.696C404.08 261.656 404.656 263 404.656 264.728C404.656 268.952 401.968 274.04 396.592 279.992C391.408 285.944 384.016 291.128 374.416 295.544C365.008 299.768 354.16 301.88 341.872 301.88ZM381.328 213.176V212.312C381.328 199.064 377.68 188.312 370.384 180.056C363.28 171.608 353.68 167.384 341.584 167.384C329.488 167.384 319.888 171.608 312.784 180.056C305.872 188.312 302.416 199.064 302.416 212.312V213.176H381.328ZM687.9 299C685.404 299 683.484 298.424 682.14 297.272C680.796 296.12 679.644 294.296 678.684 291.8L637.788 158.168L637.212 155.288C637.212 153.56 637.788 152.12 638.94 150.968C640.284 149.816 641.724 149.24 643.26 149.24H655.932C657.852 149.24 659.388 149.816 660.54 150.968C661.884 151.928 662.748 152.984 663.132 154.136L695.1 262.712L729.372 155.288C729.756 153.752 730.62 152.408 731.964 151.256C733.308 149.912 735.132 149.24 737.436 149.24H747.228C749.532 149.24 751.356 149.912 752.7 151.256C754.044 152.408 754.908 153.752 755.292 155.288L789.564 262.712L821.532 154.136C821.724 153.176 822.396 152.12 823.548 150.968C824.892 149.816 826.524 149.24 828.444 149.24H841.404C842.94 149.24 844.284 149.816 845.436 150.968C846.588 152.12 847.164 153.56 847.164 155.288L846.588 158.168L805.98 291.8C805.02 294.296 803.868 296.12 802.524 297.272C801.18 298.424 799.164 299 796.476 299H785.244C780.06 299 776.892 296.6 775.74 291.8L742.332 188.696L708.924 291.8C707.388 296.6 704.124 299 699.132 299H687.9ZM889.43 299C887.51 299 885.878 298.424 884.534 297.272C883.382 295.928 882.806 294.296 882.806 292.376V104.312C882.806 102.2 883.382 100.568 884.534 99.416C885.878 98.072 887.51 97.4 889.43 97.4H954.806C983.798 97.4 1004.73 103.928 1017.59 116.984C1030.45 129.848 1037.17 149.336 1037.75 175.448C1037.94 181.016 1038.04 188.504 1038.04 197.912C1038.04 207.32 1037.94 214.904 1037.75 220.664C1037.17 238.904 1034.1 253.784 1028.53 265.304C1023.16 276.632 1014.61 285.08 1002.9 290.648C991.19 296.216 975.638 299 956.246 299H889.43ZM954.806 274.52C968.054 274.52 978.518 272.696 986.198 269.048C994.07 265.4 999.734 259.64 1003.19 251.768C1006.84 243.704 1008.85 232.952 1009.24 219.512C1009.62 207.992 1009.81 200.792 1009.81 197.912C1009.81 194.84 1009.62 187.736 1009.24 176.6C1008.85 157.592 1004.34 143.768 995.702 135.128C987.062 126.296 972.95 121.88 953.366 121.88H911.03V274.52H954.806ZM1087.99 299C1086.07 299 1084.44 298.424 1083.1 297.272C1081.94 295.928 1081.37 294.296 1081.37 292.376V104.312C1081.37 102.2 1081.94 100.568 1083.1 99.416C1084.44 98.072 1086.07 97.4 1087.99 97.4H1166.9C1187.45 97.4 1202.9 102.296 1213.27 112.088C1223.64 121.88 1228.82 134.744 1228.82 150.68C1228.82 161.432 1226.33 170.36 1221.34 177.464C1216.54 184.568 1210.78 189.752 1204.06 193.016C1212.12 197.048 1218.94 203.288 1224.5 211.736C1230.07 220.184 1232.86 229.88 1232.86 240.824C1232.86 251.576 1230.36 261.368 1225.37 270.2C1220.57 279.032 1213.37 286.04 1203.77 291.224C1194.17 296.408 1182.65 299 1169.21 299H1087.99ZM1162.58 182.648C1174.68 182.648 1183.9 179.864 1190.23 174.296C1196.76 168.728 1200.02 160.952 1200.02 150.968C1200.02 141.176 1196.86 133.688 1190.52 128.504C1184.18 123.32 1174.87 120.728 1162.58 120.728H1109.59V182.648H1162.58ZM1165.46 275.672C1177.56 275.672 1186.97 272.408 1193.69 265.88C1200.6 259.352 1204.06 251 1204.06 240.824C1204.06 230.264 1200.6 221.816 1193.69 215.48C1186.97 208.952 1177.56 205.688 1165.46 205.688H1109.59V275.672H1165.46Z" fill="url(#paint0_linear)"/><defs><linearGradient id="paint0_linear" x1="32" y1="30" x2="1249" y2="371" gradientUnits="userSpaceOnUse"><stop stop-color="#3CD3AD"/><stop offset="1" stop-color="#7CF9AB"/></linearGradient></defs></svg>